Light Display Narrow — UC.ufo
<glyph name="A" format="1">
  <advance width="1143"/>
  <unicode hex="0041"/>
  <outline>
    <contour>
      <point x="-84" y="36" type="line"/>
      <point x="-89" y="0" type="line"/>
      <point x="289" y="0" type="line"/>
      <point x="293" y="36" type="line"/>
      <point x="133" y="63" type="line"/>
      <point x="639" y="1276" type="line"/>
      <point x="702" y="1429" type="line"/>
      <point x="668" y="1432" type="line"/>
      <point x="682" y="1233" type="line"/>
      <point x="837" y="67" type="line"/>
      <point x="683" y="36" type="line"/>
      <point x="675" y="0" type="line"/>
      <point x="1118" y="0" type="line"/>
      <point x="1122" y="36" type="line"/>
      <point x="1000" y="63" type="line"/>
      <point x="793" y="1497" type="line"/>
      <point x="666" y="1497" type="line"/>
      <point x="39" y="61" type="line"/>
    </contour>
    <contour>
      <point x="282" y="550" type="line"/>
      <point x="281" y="484" type="line"/>
      <point x="841" y="484" type="line"/>
      <point x="842" y="550" type="line"/>
    </contour>
    <contour>
      <point x="497" y="0" type="move" name="bottom"/>
    </contour>
    <contour>
      <point x="969" y="18" type="move" name="ogonek"/>
    </contour>
    <contour>
      <point x="713" y="1486" type="move" name="top"/>
    </contour>
  </outline>
</glyph>
<glyph name="B" format="1">
  <advance width="1081"/>
  <unicode hex="0042"/>
  <outline>
    <contour>
      <point x="636" y="1486" type="move" name="top"/>
    </contour>
    <contour>
      <point x="441" y="0" type="move" name="bottom"/>
    </contour>
    <contour>
      <point x="-26" y="36" type="line"/>
      <point x="-31" y="0" type="line"/>
      <point x="180" y="0" type="line" smooth="yes"/>
      <point x="244" y="0"/>
      <point x="345" y="-14"/>
      <point x="421" y="-14" type="curve"/>
      <point x="769" y="-14"/>
      <point x="1015" y="133"/>
      <point x="1020" y="458" type="curve"/>
      <point x="1023" y="649"/>
      <point x="904" y="756"/>
      <point x="726" y="769" type="curve"/>
      <point x="905" y="822"/>
      <point x="1032" y="976"/>
      <point x="1032" y="1190" type="curve"/>
      <point x="1033" y="1355"/>
      <point x="936" y="1502"/>
      <point x="647" y="1502" type="curve"/>
      <point x="551" y="1502"/>
      <point x="477" y="1488"/>
      <point x="394" y="1486" type="curve"/>
      <point x="177" y="1486" type="line"/>
      <point x="172" y="1450" type="line"/>
      <point x="292" y="1420" type="line"/>
      <point x="105" y="67" type="line"/>
    </contour>
    <contour>
      <point x="443" y="37" type="curve"/>
      <point x="366" y="37"/>
      <point x="250" y="61"/>
      <point x="239" y="73" type="curve"/>
      <point x="254" y="40" type="line"/>
      <point x="353" y="749" type="line"/>
      <point x="315" y="736" type="line"/>
      <point x="393" y="738"/>
      <point x="454" y="737"/>
      <point x="567" y="737" type="curve"/>
      <point x="748" y="737"/>
      <point x="863" y="652"/>
      <point x="861" y="460" type="curve"/>
      <point x="860" y="182"/>
      <point x="703" y="37"/>
    </contour>
    <contour>
      <point x="589" y="794" type="curve"/>
      <point x="484" y="795"/>
      <point x="383" y="792"/>
      <point x="325" y="794" type="curve"/>
      <point x="355" y="763" type="line"/>
      <point x="454" y="1471" type="line"/>
      <point x="418" y="1427" type="line"/>
      <point x="449" y="1439"/>
      <point x="581" y="1450"/>
      <point x="615" y="1450" type="curve"/>
      <point x="821" y="1450"/>
      <point x="878" y="1328"/>
      <point x="878" y="1171" type="curve"/>
      <point x="877" y="932"/>
      <point x="730" y="792"/>
    </contour>
  </outline>
</glyph>
<glyph name="C" format="1">
  <advance width="1100"/>
  <unicode hex="0043"/>
  <outline>
    <contour>
      <point x="575" y="-17" type="curve"/>
      <point x="751" y="-17"/>
      <point x="874" y="47"/>
      <point x="943" y="71" type="curve"/>
      <point x="987" y="399" type="line"/>
      <point x="917" y="399" type="line"/>
      <point x="898" y="327"/>
      <point x="878" y="224"/>
      <point x="858" y="156" type="curve"/>
      <point x="821" y="88"/>
      <point x="684" y="38"/>
      <point x="606" y="38" type="curve"/>
      <point x="331" y="38"/>
      <point x="259" y="324"/>
      <point x="258" y="622" type="curve"/>
      <point x="258" y="1009"/>
      <point x="413" y="1449"/>
      <point x="739" y="1449" type="curve"/>
      <point x="863" y="1449"/>
      <point x="923" y="1407"/>
      <point x="961" y="1379" type="curve"/>
      <point x="965" y="1079" type="line"/>
      <point x="1038" y="1079" type="line"/>
      <point x="1097" y="1443" type="line"/>
      <point x="1035" y="1452"/>
      <point x="926" y="1502"/>
      <point x="756" y="1502" type="curve"/>
      <point x="391" y="1502"/>
      <point x="91" y="1141"/>
      <point x="93" y="612" type="curve"/>
      <point x="94" y="306"/>
      <point x="197" y="-17"/>
    </contour>
    <contour>
      <point x="563" y="0" type="move" name="bottom"/>
    </contour>
    <contour>
      <point x="763" y="1486" type="move" name="top"/>
    </contour>
  </outline>
</glyph>
<glyph name="D" format="1">
  <advance width="1176"/>
  <unicode hex="0044"/>
  <outline>
    <contour>
      <point x="-26" y="36" type="line"/>
      <point x="-31" y="0" type="line"/>
      <point x="182" y="0" type="line" smooth="yes"/>
      <point x="322" y="0"/>
      <point x="376" y="-17"/>
      <point x="502" y="-17" type="curve"/>
      <point x="918" y="-17"/>
      <point x="1163" y="403"/>
      <point x="1170" y="902" type="curve"/>
      <point x="1172" y="1257"/>
      <point x="1034" y="1502"/>
      <point x="671" y="1502" type="curve"/>
      <point x="587" y="1502"/>
      <point x="500" y="1488"/>
      <point x="412" y="1486" type="curve"/>
      <point x="174" y="1486" type="line"/>
      <point x="169" y="1450" type="line"/>
      <point x="289" y="1419" type="line"/>
      <point x="104" y="67" type="line"/>
    </contour>
    <contour>
      <point x="500" y="37" type="curve"/>
      <point x="387" y="37"/>
      <point x="301" y="62"/>
      <point x="223" y="86" type="curve"/>
      <point x="256" y="28" type="line"/>
      <point x="453" y="1456" type="line"/>
      <point x="416" y="1411" type="line"/>
      <point x="464" y="1427"/>
      <point x="559" y="1449"/>
      <point x="637" y="1449" type="curve"/>
      <point x="909" y="1449"/>
      <point x="1007" y="1255"/>
      <point x="1007" y="891" type="curve"/>
      <point x="1001" y="471"/>
      <point x="816" y="37"/>
    </contour>
    <contour>
      <point x="472" y="0" type="move" name="bottom"/>
    </contour>
    <contour>
      <point x="664" y="1484" type="move" name="top"/>
    </contour>
  </outline>
</glyph>
<glyph name="E" format="1">
  <advance width="1043"/>
  <unicode hex="0045"/>
  <outline>
    <contour>
      <point x="162" y="1486" type="move" name="topleft"/>
    </contour>
    <contour>
      <point x="666" y="1486" type="move" name="top"/>
    </contour>
    <contour>
      <point x="842" y="9" type="move" name="ogonek"/>
    </contour>
    <contour>
      <point x="462" y="0" type="move" name="bottom"/>
    </contour>
    <contour>
      <point x="-26" y="36" type="line"/>
      <point x="-31" y="0" type="line"/>
      <point x="897" y="0" type="line"/>
      <point x="980" y="325" type="line"/>
      <point x="916" y="343" type="line"/>
      <point x="806" y="93" type="line"/>
      <point x="258" y="66" type="line"/>
      <point x="351" y="733" type="line"/>
      <point x="765" y="719" type="line"/>
      <point x="779" y="810" type="line"/>
      <point x="360" y="798" type="line"/>
      <point x="446" y="1422" type="line"/>
      <point x="893" y="1401" type="line"/>
      <point x="931" y="1175" type="line"/>
      <point x="983" y="1175" type="line"/>
      <point x="995" y="1486" type="line"/>
      <point x="177" y="1486" type="line"/>
      <point x="172" y="1450" type="line"/>
      <point x="292" y="1420" type="line"/>
      <point x="104" y="67" type="line"/>
    </contour>
  </outline>
</glyph>
<glyph name="F" format="1">
  <advance width="904"/>
  <unicode hex="0046"/>
  <outline>
    <contour>
      <point x="-26" y="36" type="line"/>
      <point x="-31" y="0" type="line"/>
      <point x="465" y="0" type="line"/>
      <point x="470" y="36" type="line"/>
      <point x="262" y="69" type="line"/>
      <point x="353" y="732" type="line"/>
      <point x="750" y="718" type="line"/>
      <point x="763" y="810" type="line"/>
      <point x="362" y="797" type="line"/>
      <point x="447" y="1421" type="line"/>
      <point x="873" y="1400" type="line"/>
      <point x="913" y="1174" type="line"/>
      <point x="967" y="1174" type="line"/>
      <point x="979" y="1486" type="line"/>
      <point x="174" y="1486" type="line"/>
      <point x="169" y="1450" type="line"/>
      <point x="289" y="1419" type="line"/>
      <point x="104" y="67" type="line"/>
    </contour>
    <contour>
      <point x="511" y="-164" type="move" name="btm"/>
    </contour>
    <contour>
      <point x="659" y="1486" type="move" name="top"/>
    </contour>
  </outline>
</glyph>
<glyph name="G" format="1">
  <advance width="1198"/>
  <unicode hex="0047"/>
  <outline>
    <contour>
      <point x="764" y="1486" type="move" name="top"/>
    </contour>
    <contour>
      <point x="596" y="0" type="move" name="bottom"/>
    </contour>
    <contour>
      <point x="585" y="-16" type="curve"/>
      <point x="696" y="-16"/>
      <point x="798" y="27"/>
      <point x="870" y="53" type="curve"/>
      <point x="934" y="76"/>
      <point x="968" y="86"/>
      <point x="1003" y="90" type="curve"/>
      <point x="1091" y="709" type="line"/>
      <point x="727" y="709" type="line"/>
      <point x="720" y="648" type="line"/>
      <point x="937" y="631" type="line"/>
      <point x="871" y="152" type="line"/>
      <point x="806" y="91"/>
      <point x="692" y="37"/>
      <point x="595" y="37" type="curve"/>
      <point x="343" y="37"/>
      <point x="254" y="323"/>
      <point x="254" y="624" type="curve"/>
      <point x="254" y="1010"/>
      <point x="410" y="1449"/>
      <point x="758" y="1449" type="curve"/>
      <point x="912" y="1449"/>
      <point x="973" y="1405"/>
      <point x="1018" y="1370" type="curve"/>
      <point x="1021" y="1142" type="line"/>
      <point x="1090" y="1142" type="line"/>
      <point x="1143" y="1443" type="line"/>
      <point x="1132" y="1444"/>
      <point x="1121" y="1447"/>
      <point x="1108" y="1450" type="curve"/>
      <point x="1044" y="1467"/>
      <point x="940" y="1502"/>
      <point x="775" y="1502" type="curve"/>
      <point x="393" y="1502"/>
      <point x="92" y="1145"/>
      <point x="93" y="612" type="curve"/>
      <point x="93" y="307"/>
      <point x="196" y="-16"/>
    </contour>
  </outline>
</glyph>
<glyph name="H" format="1">
  <advance width="1240"/>
  <unicode hex="0048"/>
  <outline>
    <contour>
      <point x="767" y="1486" type="move" name="top"/>
    </contour>
    <contour>
      <point x="561" y="0" type="move" name="bottom"/>
    </contour>
    <contour>
      <point x="-26" y="36" type="line"/>
      <point x="-31" y="0" type="line"/>
      <point x="384" y="0" type="line"/>
      <point x="389" y="36" type="line"/>
      <point x="258" y="67" type="line"/>
      <point x="446" y="1420" type="line"/>
      <point x="569" y="1450" type="line"/>
      <point x="574" y="1486" type="line"/>
      <point x="177" y="1486" type="line"/>
      <point x="172" y="1450" type="line"/>
      <point x="292" y="1420" type="line"/>
      <point x="104" y="67" type="line"/>
    </contour>
    <contour>
      <point x="737" y="36" type="line"/>
      <point x="732" y="0" type="line"/>
      <point x="1147" y="0" type="line"/>
      <point x="1152" y="36" type="line"/>
      <point x="1022" y="67" type="line"/>
      <point x="1209" y="1420" type="line"/>
      <point x="1331" y="1450" type="line"/>
      <point x="1336" y="1486" type="line"/>
      <point x="940" y="1486" type="line"/>
      <point x="935" y="1450" type="line"/>
      <point x="1055" y="1420" type="line"/>
      <point x="868" y="67" type="line"/>
    </contour>
    <contour>
      <point x="317" y="798" type="line"/>
      <point x="316" y="732" type="line"/>
      <point x="1017" y="732" type="line"/>
      <point x="1018" y="798" type="line"/>
    </contour>
  </outline>
</glyph>
<glyph name="I" format="1">
  <advance width="512"/>
  <unicode hex="0049"/>
  <outline>
    <contour>
      <point x="-10" y="36" type="line"/>
      <point x="-15" y="0" type="line"/>
      <point x="403" y="0" type="line"/>
      <point x="408" y="36" type="line"/>
      <point x="277" y="67" type="line"/>
      <point x="462" y="1419" type="line"/>
      <point x="586" y="1450" type="line"/>
      <point x="590" y="1486" type="line"/>
      <point x="190" y="1486" type="line"/>
      <point x="185" y="1450" type="line"/>
      <point x="304" y="1419" type="line"/>
      <point x="120" y="67" type="line"/>
    </contour>
    <contour>
      <point x="202" y="0" type="move" name="bottom"/>
    </contour>
    <contour>
      <point x="364" y="-164" type="move" name="btm"/>
    </contour>
    <contour>
      <point x="338" y="0" type="move" name="ogonek"/>
    </contour>
    <contour>
      <point x="401" y="1486" type="move" name="top"/>
    </contour>
    <contour>
      <point x="181" y="1486" type="move" name="topleft"/>
    </contour>
  </outline>
</glyph>
<glyph name="J" format="1">
  <advance width="537"/>
  <unicode hex="004A"/>
  <outline>
    <contour>
      <point x="241" y="-164" type="move" name="btm"/>
    </contour>
    <contour>
      <point x="445" y="1486" type="move" name="top"/>
    </contour>
    <contour>
      <point x="-173" y="-266" type="curve"/>
      <point x="-154" y="-309" type="line"/>
      <point x="38" y="-273"/>
      <point x="240" y="-158"/>
      <point x="292" y="78" type="curve"/>
      <point x="331" y="251"/>
      <point x="399" y="762"/>
      <point x="474" y="1415" type="curve"/>
      <point x="616" y="1450" type="line"/>
      <point x="621" y="1486" type="line"/>
      <point x="204" y="1486" type="line"/>
      <point x="199" y="1450" type="line"/>
      <point x="324" y="1419" type="line"/>
      <point x="275" y="993"/>
      <point x="216" y="413"/>
      <point x="152" y="92" type="curve"/>
      <point x="121" y="-67"/>
      <point x="21" y="-208"/>
    </contour>
  </outline>
</glyph>
<glyph name="K" format="1">
  <advance width="1160"/>
  <unicode hex="004B"/>
  <outline>
    <contour>
      <point x="748" y="1486" type="move" name="top"/>
    </contour>
    <contour>
      <point x="597" y="0" type="move" name="bottom"/>
    </contour>
    <contour>
      <point x="-26" y="36" type="line"/>
      <point x="-31" y="0" type="line"/>
      <point x="384" y="0" type="line"/>
      <point x="389" y="36" type="line"/>
      <point x="258" y="67" type="line"/>
      <point x="446" y="1420" type="line"/>
      <point x="569" y="1450" type="line"/>
      <point x="573" y="1486" type="line"/>
      <point x="177" y="1486" type="line"/>
      <point x="172" y="1450" type="line"/>
      <point x="292" y="1420" type="line"/>
      <point x="104" y="67" type="line"/>
    </contour>
    <contour>
      <point x="313" y="586" type="line"/>
      <point x="302" y="484" type="line"/>
      <point x="1089" y="1424" type="line"/>
      <point x="1210" y="1450" type="line"/>
      <point x="1217" y="1486" type="line"/>
      <point x="860" y="1486" type="line"/>
      <point x="855" y="1450" type="line"/>
      <point x="994" y="1422" type="line"/>
    </contour>
    <contour>
      <point x="859" y="0" type="curve"/>
      <point x="1080" y="0" type="line"/>
      <point x="1085" y="36" type="line"/>
      <point x="986" y="68" type="line"/>
      <point x="952" y="96"/>
      <point x="893" y="226"/>
      <point x="804" y="415" type="curve"/>
      <point x="750" y="530"/>
      <point x="643" y="741"/>
      <point x="596" y="844" type="curve"/>
      <point x="498" y="733" type="line"/>
      <point x="540" y="641"/>
      <point x="624" y="446"/>
      <point x="676" y="333" type="curve"/>
      <point x="740" y="194"/>
      <point x="817" y="4"/>
    </contour>
  </outline>
</glyph>
<glyph name="L" format="1">
  <advance width="950"/>
  <unicode hex="004C"/>
  <outline>
    <contour>
      <point x="756" y="1110" type="move" name="car"/>
    </contour>
    <contour>
      <point x="380" y="1486" type="move" name="top"/>
    </contour>
    <contour>
      <point x="447" y="0" type="move" name="bottom"/>
    </contour>
    <contour>
      <point x="-26" y="36" type="line"/>
      <point x="-31" y="0" type="line"/>
      <point x="819" y="0" type="line"/>
      <point x="914" y="434" type="line"/>
      <point x="851" y="448" type="line"/>
      <point x="729" y="93" type="line"/>
      <point x="258" y="66" type="line"/>
      <point x="445" y="1417" type="line"/>
      <point x="586" y="1450" type="line"/>
      <point x="590" y="1486" type="line"/>
      <point x="177" y="1486" type="line"/>
      <point x="172" y="1450" type="line"/>
      <point x="292" y="1420" type="line"/>
      <point x="104" y="67" type="line"/>
    </contour>
  </outline>
</glyph>
<glyph name="M" format="1">
  <advance width="1617"/>
  <unicode hex="004D"/>
  <outline>
    <contour>
      <point x="1289" y="1486" type="line"/>
      <point x="868" y="466" type="line"/>
      <point x="778" y="238" type="line"/>
      <point x="754" y="470" type="line"/>
      <point x="617" y="1486" type="line"/>
      <point x="276" y="1486" type="line"/>
      <point x="271" y="1451" type="line"/>
      <point x="411" y="1418" type="line"/>
      <point x="103" y="62" type="line"/>
      <point x="-29" y="36" type="line"/>
      <point x="-34" y="0" type="line"/>
      <point x="346" y="0" type="line"/>
      <point x="351" y="36" type="line"/>
      <point x="192" y="64" type="line"/>
      <point x="404" y="1038" type="line"/>
      <point x="481" y="1412" type="line"/>
      <point x="535" y="1019" type="line"/>
      <point x="655" y="0" type="line"/>
      <point x="752" y="0" type="line"/>
      <point x="1182" y="1041" type="line"/>
      <point x="1320" y="1399" type="line"/>
      <point x="1293" y="996" type="line"/>
      <point x="1252" y="67" type="line"/>
      <point x="1088" y="36" type="line"/>
      <point x="1083" y="0" type="line"/>
      <point x="1552" y="0" type="line"/>
      <point x="1555" y="36" type="line"/>
      <point x="1409" y="69" type="line"/>
      <point x="1455" y="1425" type="line"/>
      <point x="1598" y="1450" type="line"/>
      <point x="1603" y="1486" type="line"/>
    </contour>
    <contour>
      <point x="717" y="0" type="move" name="bottom"/>
    </contour>
    <contour>
      <point x="917" y="1486" type="move" name="top"/>
    </contour>
  </outline>
</glyph>
<glyph name="N" format="1">
  <advance width="1175"/>
  <unicode hex="004E"/>
  <outline>
    <contour>
      <point x="-26" y="36" type="line"/>
      <point x="-31" y="0" type="line"/>
      <point x="322" y="0" type="line"/>
      <point x="327" y="36" type="line"/>
      <point x="190" y="69" type="line"/>
      <point x="348" y="1419" type="line"/>
      <point x="321" y="1416" type="line"/>
      <point x="413" y="1098" type="line"/>
      <point x="837" y="0" type="line"/>
      <point x="956" y="0" type="line"/>
      <point x="1152" y="1417" type="line"/>
      <point x="1282" y="1450" type="line"/>
      <point x="1286" y="1486" type="line"/>
      <point x="934" y="1486" type="line"/>
      <point x="929" y="1450" type="line"/>
      <point x="1065" y="1417" type="line"/>
      <point x="911" y="93" type="line"/>
      <point x="941" y="101" type="line"/>
      <point x="856" y="395" type="line"/>
      <point x="436" y="1486" type="line"/>
      <point x="174" y="1486" type="line"/>
      <point x="169" y="1450" type="line"/>
      <point x="291" y="1419" type="line"/>
      <point x="103" y="69" type="line"/>
    </contour>
    <contour>
      <point x="617" y="0" type="move" name="bottom"/>
    </contour>
    <contour>
      <point x="776" y="1486" type="move" name="top"/>
    </contour>
  </outline>
</glyph>
<glyph name="O" format="1">
  <advance width="1163"/>
  <unicode hex="004F"/>
  <outline>
    <contour>
      <point x="163" y="1486" type="move" name="topleft"/>
    </contour>
    <contour>
      <point x="623" y="743" type="move" name="center"/>
    </contour>
    <contour>
      <point x="520" y="0" type="move" name="bottom"/>
    </contour>
    <contour>
      <point x="726" y="1486" type="move" name="top"/>
    </contour>
    <contour>
      <point x="1008" y="1430" type="move" name="topright"/>
    </contour>
    <contour>
      <point x="735" y="40" type="move" name="ogonek"/>
    </contour>
    <contour>
      <point x="528" y="-22" type="curve"/>
      <point x="893" y="-22"/>
      <point x="1147" y="378"/>
      <point x="1155" y="885" type="curve"/>
      <point x="1160" y="1258"/>
      <point x="1022" y="1503"/>
      <point x="721" y="1503" type="curve"/>
      <point x="360" y="1503"/>
      <point x="100" y="1117"/>
      <point x="92" y="605" type="curve"/>
      <point x="86" y="221"/>
      <point x="231" y="-22"/>
    </contour>
    <contour>
      <point x="549" y="29" type="curve"/>
      <point x="352" y="29"/>
      <point x="246" y="253"/>
      <point x="251" y="608" type="curve"/>
      <point x="259" y="1086"/>
      <point x="448" y="1452"/>
      <point x="700" y="1452" type="curve"/>
      <point x="902" y="1452"/>
      <point x="1001" y="1241"/>
      <point x="995" y="879" type="curve"/>
      <point x="988" y="423"/>
      <point x="801" y="29"/>
    </contour>
  </outline>
</glyph>
<glyph name="P" format="1">
  <advance width="1052"/>
  <unicode hex="0050"/>
  <outline>
    <contour>
      <point x="199" y="-166" type="move" name="btm"/>
    </contour>
    <contour>
      <point x="669" y="1486" type="move" name="top"/>
    </contour>
    <contour>
      <point x="-26" y="36" type="line"/>
      <point x="-31" y="0" type="line"/>
      <point x="460" y="0" type="line"/>
      <point x="465" y="36" type="line"/>
      <point x="258" y="69" type="line"/>
      <point x="449" y="1446" type="line"/>
      <point x="411" y="1423" type="line"/>
      <point x="467" y="1432"/>
      <point x="570" y="1449"/>
      <point x="623" y="1449" type="curve"/>
      <point x="808" y="1449"/>
      <point x="893" y="1344"/>
      <point x="887" y="1111" type="curve"/>
      <point x="880" y="805"/>
      <point x="756" y="622"/>
      <point x="500" y="622" type="curve"/>
      <point x="452" y="622"/>
      <point x="370" y="637"/>
      <point x="319" y="651" type="curve"/>
      <point x="307" y="587" type="line"/>
      <point x="358" y="577"/>
      <point x="422" y="569"/>
      <point x="498" y="569" type="curve"/>
      <point x="809" y="569"/>
      <point x="1049" y="748"/>
      <point x="1050" y="1120" type="curve"/>
      <point x="1051" y="1377"/>
      <point x="912" y="1502"/>
      <point x="650" y="1502" type="curve"/>
      <point x="554" y="1502"/>
      <point x="475" y="1486"/>
      <point x="380" y="1486" type="curve"/>
      <point x="177" y="1486" type="line"/>
      <point x="172" y="1450" type="line"/>
      <point x="292" y="1420" type="line"/>
      <point x="104" y="67" type="line"/>
    </contour>
  </outline>
</glyph>
<glyph name="Q" format="1">
  <advance width="1163"/>
  <unicode hex="0051"/>
  <outline>
    <contour>
      <point x="786" y="-344" type="curve"/>
      <point x="889" y="-344"/>
      <point x="993" y="-299"/>
      <point x="1037" y="-261" type="curve"/>
      <point x="1037" y="-159" type="line"/>
      <point x="983" y="-187"/>
      <point x="897" y="-208"/>
      <point x="837" y="-208" type="curve"/>
      <point x="703" y="-208"/>
      <point x="576" y="-180"/>
      <point x="577" y="-12" type="curve"/>
      <point x="542" y="-17" type="line"/>
      <point x="474" y="-232"/>
      <point x="583" y="-344"/>
    </contour>
    <contour>
      <point x="528" y="-22" type="curve"/>
      <point x="893" y="-22"/>
      <point x="1147" y="378"/>
      <point x="1155" y="885" type="curve"/>
      <point x="1160" y="1258"/>
      <point x="1022" y="1503"/>
      <point x="721" y="1503" type="curve"/>
      <point x="360" y="1503"/>
      <point x="100" y="1117"/>
      <point x="92" y="605" type="curve"/>
      <point x="86" y="221"/>
      <point x="231" y="-22"/>
    </contour>
    <contour>
      <point x="549" y="29" type="curve"/>
      <point x="352" y="29"/>
      <point x="246" y="253"/>
      <point x="251" y="608" type="curve"/>
      <point x="259" y="1086"/>
      <point x="448" y="1452"/>
      <point x="700" y="1452" type="curve"/>
      <point x="902" y="1452"/>
      <point x="1001" y="1241"/>
      <point x="995" y="879" type="curve"/>
      <point x="988" y="423"/>
      <point x="801" y="29"/>
    </contour>
  </outline>
</glyph>
<glyph name="R" format="1">
  <advance width="1121"/>
  <unicode hex="0052"/>
  <outline>
    <contour>
      <point x="630" y="1486" type="move" name="top"/>
    </contour>
    <contour>
      <point x="609" y="0" type="move" name="bottom"/>
    </contour>
    <contour>
      <point x="-26" y="36" type="line"/>
      <point x="-31" y="0" type="line"/>
      <point x="425" y="0" type="line"/>
      <point x="430" y="36" type="line"/>
      <point x="257" y="67" type="line"/>
      <point x="449" y="1447" type="line"/>
      <point x="411" y="1422" type="line"/>
      <point x="466" y="1432"/>
      <point x="570" y="1448"/>
      <point x="622" y="1448" type="curve"/>
      <point x="808" y="1448"/>
      <point x="886" y="1347"/>
      <point x="887" y="1157" type="curve"/>
      <point x="888" y="971"/>
      <point x="764" y="769"/>
      <point x="559" y="759" type="curve"/>
      <point x="524" y="758"/>
      <point x="382" y="759"/>
      <point x="338" y="762" type="curve"/>
      <point x="327" y="707" type="line"/>
      <point x="376" y="705"/>
      <point x="518" y="707"/>
      <point x="535" y="707" type="curve"/>
      <point x="611" y="704"/>
      <point x="677" y="448"/>
      <point x="771" y="154" type="curve"/>
      <point x="803" y="52"/>
      <point x="836" y="0"/>
      <point x="865" y="0" type="curve"/>
      <point x="1051" y="0" type="line"/>
      <point x="1057" y="36" type="line"/>
      <point x="970" y="37"/>
      <point x="949" y="108"/>
      <point x="880" y="332" type="curve"/>
      <point x="843" y="452"/>
      <point x="751" y="741"/>
      <point x="618" y="730" type="curve"/>
      <point x="604" y="710" type="line"/>
      <point x="883" y="768"/>
      <point x="1044" y="942"/>
      <point x="1044" y="1166" type="curve"/>
      <point x="1045" y="1395"/>
      <point x="922" y="1502"/>
      <point x="627" y="1502" type="curve"/>
      <point x="547" y="1502"/>
      <point x="469" y="1486"/>
      <point x="392" y="1486" type="curve"/>
      <point x="177" y="1486" type="line"/>
      <point x="172" y="1450" type="line"/>
      <point x="292" y="1420" type="line"/>
      <point x="104" y="67" type="line"/>
    </contour>
  </outline>
</glyph>
<glyph name="S" format="1">
  <advance width="866"/>
  <unicode hex="0053"/>
  <outline>
    <contour>
      <point x="573" y="1486" type="move" name="top"/>
    </contour>
    <contour>
      <point x="365" y="0" type="move" name="bottom"/>
    </contour>
    <contour>
      <point x="344" y="-22" type="curve"/>
      <point x="603" y="-22"/>
      <point x="797" y="143"/>
      <point x="799" y="410" type="curve"/>
      <point x="800" y="618"/>
      <point x="662" y="720"/>
      <point x="531" y="816" type="curve"/>
      <point x="414" y="902"/>
      <point x="294" y="983"/>
      <point x="298" y="1163" type="curve"/>
      <point x="303" y="1346"/>
      <point x="435" y="1450"/>
      <point x="573" y="1450" type="curve"/>
      <point x="679" y="1450"/>
      <point x="734" y="1411"/>
      <point x="769" y="1378" type="curve"/>
      <point x="774" y="1164" type="line"/>
      <point x="838" y="1164" type="line"/>
      <point x="881" y="1423" type="line"/>
      <point x="833" y="1454"/>
      <point x="713" y="1502"/>
      <point x="581" y="1502" type="curve"/>
      <point x="339" y="1502"/>
      <point x="162" y="1354"/>
      <point x="160" y="1093" type="curve"/>
      <point x="158" y="885"/>
      <point x="317" y="776"/>
      <point x="443" y="681" type="curve"/>
      <point x="555" y="597"/>
      <point x="659" y="513"/>
      <point x="651" y="338" type="curve"/>
      <point x="641" y="116"/>
      <point x="482" y="30"/>
      <point x="351" y="30" type="curve"/>
      <point x="249" y="30"/>
      <point x="175" y="77"/>
      <point x="127" y="115" type="curve"/>
      <point x="123" y="341" type="line"/>
      <point x="55" y="341" type="line"/>
      <point x="8" y="65" type="line"/>
      <point x="51" y="29"/>
      <point x="208" y="-22"/>
    </contour>
  </outline>
</glyph>
<glyph name="T" format="1">
  <advance width="1139"/>
  <unicode hex="0054"/>
  <outline>
    <contour>
      <point x="696" y="1486" type="move" name="top"/>
    </contour>
    <contour>
      <point x="501" y="0" type="move" name="bottom"/>
    </contour>
    <contour>
      <point x="1185" y="1486" type="line"/>
      <point x="200" y="1486" type="line"/>
      <point x="124" y="1064" type="line"/>
      <point x="186" y="1066" type="line"/>
      <point x="293" y="1406" type="line"/>
      <point x="618" y="1422" type="line"/>
      <point x="430" y="68" type="line"/>
      <point x="244" y="36" type="line"/>
      <point x="239" y="0" type="line"/>
      <point x="766" y="0" type="line"/>
      <point x="771" y="36" type="line"/>
      <point x="584" y="68" type="line"/>
      <point x="772" y="1422" type="line"/>
      <point x="1072" y="1406" type="line"/>
      <point x="1088" y="1062" type="line"/>
      <point x="1147" y="1064" type="line"/>
    </contour>
  </outline>
</glyph>
<glyph name="U" format="1">
  <advance width="1196"/>
  <unicode hex="0055"/>
  <outline>
    <contour>
      <point x="1063" y="612" type="curve"/>
      <point x="1166" y="1420" type="line"/>
      <point x="1286" y="1450" type="line"/>
      <point x="1291" y="1486" type="line"/>
      <point x="962" y="1486" type="line"/>
      <point x="957" y="1450" type="line"/>
      <point x="1088" y="1419" type="line"/>
      <point x="998" y="612" type="line" smooth="yes"/>
      <point x="955" y="224"/>
      <point x="796" y="59"/>
      <point x="581" y="59" type="curve"/>
      <point x="372" y="59"/>
      <point x="301" y="215"/>
      <point x="304" y="434" type="curve"/>
      <point x="305" y="484"/>
      <point x="309" y="538"/>
      <point x="317" y="594" type="curve"/>
      <point x="428" y="1419" type="line"/>
      <point x="561" y="1450" type="line"/>
      <point x="566" y="1486" type="line"/>
      <point x="159" y="1486" type="line"/>
      <point x="154" y="1450" type="line"/>
      <point x="269" y="1420" type="line"/>
      <point x="155" y="583" type="line" smooth="yes"/>
      <point x="149" y="537"/>
      <point x="147" y="494"/>
      <point x="146" y="452" type="curve"/>
      <point x="142" y="161"/>
      <point x="265" y="-20"/>
      <point x="552" y="-20" type="curve"/>
      <point x="842" y="-20"/>
      <point x="1008" y="178"/>
    </contour>
    <contour>
      <point x="555" y="0" type="move" name="bottom"/>
    </contour>
    <contour>
      <point x="713" y="20" type="move" name="ogonek"/>
    </contour>
    <contour>
      <point x="743" y="1486" type="move" name="top"/>
    </contour>
    <contour>
      <point x="1132" y="1486" type="move" name="topright"/>
    </contour>
  </outline>
</glyph>
<glyph name="V" format="1">
  <advance width="1072"/>
  <unicode hex="0056"/>
  <outline>
    <contour>
      <point x="190" y="1423" type="line"/>
      <point x="397" y="-17" type="line"/>
      <point x="523" y="-10" type="line"/>
      <point x="1130" y="1427" type="line"/>
      <point x="1236" y="1450" type="line"/>
      <point x="1241" y="1486" type="line"/>
      <point x="886" y="1486" type="line"/>
      <point x="882" y="1450" type="line"/>
      <point x="1039" y="1425" type="line"/>
      <point x="580" y="288" type="line"/>
      <point x="486" y="55" type="line"/>
      <point x="520" y="54" type="line"/>
      <point x="502" y="260" type="line"/>
      <point x="350" y="1419" type="line"/>
      <point x="517" y="1450" type="line"/>
      <point x="524" y="1486" type="line"/>
      <point x="96" y="1486" type="line"/>
      <point x="92" y="1450" type="line"/>
    </contour>
    <contour>
      <point x="740" y="1660" type="move" name="top"/>
    </contour>
  </outline>
</glyph>
<glyph name="W" format="1">
  <advance width="1619"/>
  <unicode hex="0057"/>
  <outline>
    <contour>
      <point x="835" y="1423" type="line"/>
      <point x="991" y="-18" type="line"/>
      <point x="1117" y="-10" type="line"/>
      <point x="1684" y="1427" type="line"/>
      <point x="1790" y="1450" type="line"/>
      <point x="1795" y="1486" type="line"/>
      <point x="1432" y="1486" type="line"/>
      <point x="1428" y="1450" type="line"/>
      <point x="1593" y="1425" type="line"/>
      <point x="1163" y="277" type="line"/>
      <point x="1080" y="56" type="line"/>
      <point x="1110" y="55" type="line"/>
      <point x="1089" y="352" type="line"/>
      <point x="995" y="1419" type="line"/>
      <point x="1138" y="1450" type="line"/>
      <point x="1146" y="1486" type="line"/>
      <point x="717" y="1486" type="line"/>
      <point x="713" y="1450" type="line"/>
    </contour>
    <contour>
      <point x="186" y="1423" type="line"/>
      <point x="363" y="-18" type="line"/>
      <point x="489" y="-10" type="line"/>
      <point x="986" y="1270" type="line"/>
      <point x="901" y="1268" type="line"/>
      <point x="523" y="257" type="line"/>
      <point x="449" y="56" type="line"/>
      <point x="486" y="55" type="line"/>
      <point x="461" y="352" type="line"/>
      <point x="346" y="1419" type="line"/>
      <point x="509" y="1450" type="line"/>
      <point x="513" y="1486" type="line"/>
      <point x="93" y="1486" type="line"/>
      <point x="89" y="1450" type="line"/>
    </contour>
    <contour>
      <point x="749" y="0" type="move" name="bottom"/>
    </contour>
    <contour>
      <point x="957" y="1486" type="move" name="top"/>
    </contour>
  </outline>
</glyph>
<glyph name="X" format="1">
  <advance width="1117"/>
  <unicode hex="0058"/>
  <outline>
    <contour>
      <point x="729" y="1660" type="move" name="top"/>
    </contour>
    <contour>
      <point x="497" y="0" type="move" name="bottom"/>
    </contour>
    <contour>
      <point x="-49" y="36" type="line"/>
      <point x="-53" y="0" type="line"/>
      <point x="320" y="0" type="line"/>
      <point x="325" y="36" type="line"/>
      <point x="178" y="66" type="line"/>
      <point x="589" y="710" type="line"/>
      <point x="631" y="736" type="line"/>
      <point x="1110" y="1422" type="line"/>
      <point x="1240" y="1450" type="line"/>
      <point x="1244" y="1486" type="line"/>
      <point x="872" y="1486" type="line"/>
      <point x="867" y="1450" type="line"/>
      <point x="1012" y="1420" type="line"/>
      <point x="622" y="822" type="line"/>
      <point x="576" y="797" type="line"/>
      <point x="77" y="63" type="line"/>
    </contour>
    <contour>
      <point x="613" y="36" type="line"/>
      <point x="608" y="0" type="line"/>
      <point x="1056" y="0" type="line"/>
      <point x="1061" y="36" type="line"/>
      <point x="934" y="66" type="line"/>
      <point x="659" y="779" type="line"/>
      <point x="645" y="817" type="line"/>
      <point x="431" y="1423" type="line"/>
      <point x="581" y="1450" type="line"/>
      <point x="586" y="1486" type="line"/>
      <point x="146" y="1486" type="line"/>
      <point x="141" y="1450" type="line"/>
      <point x="262" y="1420" type="line"/>
      <point x="536" y="703" type="line"/>
      <point x="542" y="684" type="line"/>
      <point x="760" y="63" type="line"/>
    </contour>
  </outline>
</glyph>
<glyph name="Y" format="1">
  <advance width="993"/>
  <unicode hex="0059"/>
  <outline>
    <contour>
      <point x="194" y="36" type="line"/>
      <point x="189" y="0" type="line"/>
      <point x="722" y="0" type="line"/>
      <point x="726" y="36" type="line"/>
      <point x="537" y="70" type="line"/>
      <point x="617" y="660" type="line"/>
      <point x="554" y="514" type="line"/>
      <point x="1058" y="1431" type="line"/>
      <point x="1162" y="1450" type="line"/>
      <point x="1166" y="1486" type="line"/>
      <point x="836" y="1486" type="line"/>
      <point x="831" y="1450" type="line"/>
      <point x="964" y="1429" type="line"/>
      <point x="637" y="808" type="line"/>
      <point x="536" y="612" type="line"/>
      <point x="586" y="613" type="line"/>
      <point x="535" y="814" type="line"/>
      <point x="349" y="1429" type="line"/>
      <point x="497" y="1450" type="line"/>
      <point x="502" y="1486" type="line"/>
      <point x="90" y="1486" type="line"/>
      <point x="84" y="1450" type="line"/>
      <point x="181" y="1429" type="line"/>
      <point x="479" y="507" type="line"/>
      <point x="460" y="659" type="line"/>
      <point x="379" y="68" type="line"/>
    </contour>
    <contour>
      <point x="452" y="0" type="move" name="bottom"/>
    </contour>
    <contour>
      <point x="428" y="-166" type="move" name="btm"/>
    </contour>
    <contour>
      <point x="639" y="1486" type="move" name="top"/>
    </contour>
    <contour>
      <point x="139" y="1486" type="move" name="topleft"/>
    </contour>
  </outline>
</glyph>
<glyph name="Z" format="1">
  <advance width="1062"/>
  <unicode hex="005A"/>
  <outline>
    <contour>
      <point x="1100" y="1486" type="line"/>
      <point x="255" y="1486" type="line"/>
      <point x="197" y="1140" type="line"/>
      <point x="257" y="1131" type="line"/>
      <point x="363" y="1406" type="line"/>
      <point x="933" y="1422" type="line"/>
      <point x="763" y="1200" type="line"/>
      <point x="-22" y="33" type="line"/>
      <point x="-9" y="0" type="line"/>
      <point x="904" y="0" type="line"/>
      <point x="991" y="365" type="line"/>
      <point x="924" y="384" type="line"/>
      <point x="807" y="105" type="line"/>
      <point x="154" y="64" type="line"/>
      <point x="309" y="261" type="line"/>
      <point x="1111" y="1455" type="line"/>
    </contour>
    <contour>
      <point x="484" y="0" type="move" name="bottom"/>
    </contour>
    <contour>
      <point x="662" y="1486" type="move" name="top"/>
    </contour>
  </outline>
</glyph>
<glyph name="AE" format="1">
  <advance width="1651"/>
  <unicode hex="00C6"/>
  <outline>
    <contour>
      <point x="1046" y="1486" type="move" name="top"/>
    </contour>
    <contour>
      <point x="581" y="36" type="line"/>
      <point x="576" y="0" type="line"/>
      <point x="1504" y="0" type="line"/>
      <point x="1587" y="325" type="line"/>
      <point x="1523" y="343" type="line"/>
      <point x="1413" y="93" type="line"/>
      <point x="866" y="67" type="line"/>
      <point x="959" y="733" type="line"/>
      <point x="1372" y="718" type="line"/>
      <point x="1386" y="811" type="line"/>
      <point x="968" y="799" type="line"/>
      <point x="1052" y="1422" type="line"/>
      <point x="1501" y="1401" type="line"/>
      <point x="1537" y="1175" type="line"/>
      <point x="1589" y="1175" type="line"/>
      <point x="1601" y="1486" type="line"/>
      <point x="517" y="1486" type="line"/>
      <point x="513" y="1450" type="line"/>
      <point x="711" y="1420" type="line"/>
      <point x="18" y="60" type="line"/>
      <point x="-102" y="36" type="line"/>
      <point x="-107" y="0" type="line"/>
      <point x="298" y="0" type="line"/>
      <point x="302" y="36" type="line"/>
      <point x="157" y="61" type="line"/>
      <point x="340" y="476" type="line"/>
      <point x="769" y="476" type="line"/>
      <point x="711" y="67" type="line"/>
    </contour>
    <contour>
      <point x="369" y="542" type="line"/>
      <point x="782" y="1420" type="line"/>
      <point x="899" y="1420" type="line"/>
      <point x="777" y="542" type="line"/>
    </contour>
  </outline>
</glyph>
<glyph name="AE" format="1">
  <advance width="1652"/>
  <unicode hex="00C6"/>
  <outline>
    <contour>
      <point x="581" y="36" type="line"/>
      <point x="576" y="0" type="line"/>
      <point x="1505" y="0" type="line"/>
      <point x="1589" y="328" type="line"/>
      <point x="1523" y="345" type="line"/>
      <point x="1411" y="93" type="line"/>
      <point x="869" y="67" type="line"/>
      <point x="960" y="733" type="line"/>
      <point x="1373" y="717" type="line"/>
      <point x="1387" y="811" type="line"/>
      <point x="969" y="798" type="line"/>
      <point x="1053" y="1422" type="line"/>
      <point x="1498" y="1401" type="line"/>
      <point x="1536" y="1174" type="line"/>
      <point x="1589" y="1174" type="line"/>
      <point x="1601" y="1486" type="line"/>
      <point x="514" y="1486" type="line"/>
      <point x="510" y="1450" type="line"/>
      <point x="709" y="1420" type="line"/>
      <point x="17" y="60" type="line"/>
      <point x="-103" y="36" type="line"/>
      <point x="-108" y="0" type="line"/>
      <point x="298" y="0" type="line"/>
      <point x="302" y="36" type="line"/>
      <point x="157" y="61" type="line"/>
      <point x="339" y="475" type="line"/>
      <point x="767" y="475" type="line"/>
      <point x="710" y="67" type="line"/>
    </contour>
    <contour>
      <point x="368" y="541" type="line"/>
      <point x="780" y="1420" type="line"/>
      <point x="895" y="1420" type="line"/>
      <point x="775" y="541" type="line"/>
    </contour>
    <contour>
      <point x="1043" y="1486" type="move" name="top"/>
    </contour>
  </outline>
</glyph>
<glyph name="Eth" format="1">
  <advance width="1188"/>
  <unicode hex="00D0"/>
  <outline>
    <contour>
      <point x="91" y="802" type="line"/>
      <point x="82" y="732" type="line"/>
      <point x="795" y="732" type="line"/>
      <point x="804" y="802" type="line"/>
    </contour>
    <contour>
      <point x="-14" y="36" type="line"/>
      <point x="-19" y="0" type="line"/>
      <point x="194" y="0" type="line" smooth="yes"/>
      <point x="335" y="0"/>
      <point x="388" y="-17"/>
      <point x="514" y="-17" type="curve"/>
      <point x="930" y="-17"/>
      <point x="1175" y="403"/>
      <point x="1182" y="902" type="curve"/>
      <point x="1184" y="1257"/>
      <point x="1047" y="1502"/>
      <point x="683" y="1502" type="curve"/>
      <point x="599" y="1502"/>
      <point x="512" y="1488"/>
      <point x="424" y="1486" type="curve"/>
      <point x="186" y="1486" type="line"/>
      <point x="181" y="1450" type="line"/>
      <point x="301" y="1419" type="line"/>
      <point x="116" y="67" type="line"/>
    </contour>
    <contour>
      <point x="512" y="37" type="curve"/>
      <point x="399" y="37"/>
      <point x="314" y="62"/>
      <point x="235" y="86" type="curve"/>
      <point x="268" y="28" type="line"/>
      <point x="465" y="1456" type="line"/>
      <point x="428" y="1411" type="line"/>
      <point x="476" y="1427"/>
      <point x="571" y="1449"/>
      <point x="649" y="1449" type="curve"/>
      <point x="921" y="1449"/>
      <point x="1019" y="1255"/>
      <point x="1019" y="891" type="curve"/>
      <point x="1013" y="471"/>
      <point x="829" y="37"/>
    </contour>
  </outline>
</glyph>
<glyph name="Eth" format="1">
  <advance width="1186"/>
  <unicode hex="00D0"/>
  <outline>
    <contour>
      <point x="92" y="802" type="line"/>
      <point x="83" y="732" type="line"/>
      <point x="797" y="732" type="line"/>
      <point x="806" y="802" type="line"/>
    </contour>
    <contour>
      <point x="-14" y="36" type="line"/>
      <point x="-19" y="0" type="line"/>
      <point x="193" y="0" type="line" smooth="yes"/>
      <point x="335" y="0"/>
      <point x="386" y="-16"/>
      <point x="513" y="-16" type="curve"/>
      <point x="927" y="-16"/>
      <point x="1173" y="403"/>
      <point x="1181" y="902" type="curve"/>
      <point x="1183" y="1257"/>
      <point x="1046" y="1502"/>
      <point x="683" y="1502" type="curve"/>
      <point x="599" y="1502"/>
      <point x="513" y="1488"/>
      <point x="426" y="1486" type="curve"/>
      <point x="189" y="1486" type="line"/>
      <point x="184" y="1450" type="line"/>
      <point x="304" y="1420" type="line"/>
      <point x="117" y="67" type="line"/>
    </contour>
    <contour>
      <point x="511" y="37" type="curve"/>
      <point x="398" y="37"/>
      <point x="311" y="62"/>
      <point x="232" y="86" type="curve"/>
      <point x="265" y="28" type="line"/>
      <point x="464" y="1456" type="line"/>
      <point x="427" y="1411" type="line"/>
      <point x="475" y="1427"/>
      <point x="572" y="1449"/>
      <point x="649" y="1449" type="curve"/>
      <point x="924" y="1449"/>
      <point x="1022" y="1255"/>
      <point x="1021" y="890" type="curve"/>
      <point x="1015" y="468"/>
      <point x="828" y="37"/>
    </contour>
  </outline>
</glyph>
<glyph name="Oslash" format="1">
  <advance width="1165"/>
  <unicode hex="00D8"/>
  <outline>
    <contour>
      <point x="118" y="-132" type="line"/>
      <point x="259" y="-10" type="line"/>
      <point x="1119" y="1617" type="line"/>
      <point x="978" y="1495" type="line"/>
    </contour>
    <contour>
      <point x="528" y="-22" type="curve"/>
      <point x="896" y="-22"/>
      <point x="1148" y="379"/>
      <point x="1155" y="885" type="curve"/>
      <point x="1161" y="1257"/>
      <point x="1023" y="1503"/>
      <point x="719" y="1503" type="curve"/>
      <point x="356" y="1503"/>
      <point x="98" y="1115"/>
      <point x="91" y="605" type="curve"/>
      <point x="85" y="223"/>
      <point x="230" y="-22"/>
    </contour>
    <contour>
      <point x="550" y="29" type="curve"/>
      <point x="354" y="29"/>
      <point x="249" y="256"/>
      <point x="253" y="607" type="curve"/>
      <point x="260" y="1084"/>
      <point x="448" y="1451"/>
      <point x="699" y="1452" type="curve"/>
      <point x="900" y="1452"/>
      <point x="997" y="1238"/>
      <point x="992" y="880" type="curve"/>
      <point x="986" y="424"/>
      <point x="800" y="29"/>
    </contour>
    <contour>
      <point x="717" y="1484" type="move" name="top"/>
    </contour>
  </outline>
</glyph>
<glyph name="Oslash" format="1">
  <advance width="1163"/>
  <unicode hex="00D8"/>
  <outline>
    <contour>
      <point x="719" y="1484" type="move" name="top"/>
    </contour>
    <contour>
      <point x="115" y="-131" type="line"/>
      <point x="239" y="-46" type="line"/>
      <point x="1122" y="1616" type="line"/>
      <point x="999" y="1531" type="line"/>
    </contour>
    <contour>
      <point x="528" y="-22" type="curve"/>
      <point x="893" y="-22"/>
      <point x="1147" y="378"/>
      <point x="1155" y="885" type="curve"/>
      <point x="1160" y="1258"/>
      <point x="1022" y="1503"/>
      <point x="721" y="1503" type="curve"/>
      <point x="360" y="1503"/>
      <point x="100" y="1117"/>
      <point x="92" y="605" type="curve"/>
      <point x="86" y="221"/>
      <point x="231" y="-22"/>
    </contour>
    <contour>
      <point x="549" y="29" type="curve"/>
      <point x="352" y="29"/>
      <point x="246" y="253"/>
      <point x="251" y="608" type="curve"/>
      <point x="259" y="1086"/>
      <point x="448" y="1452"/>
      <point x="700" y="1452" type="curve"/>
      <point x="902" y="1452"/>
      <point x="1001" y="1241"/>
      <point x="995" y="879" type="curve"/>
      <point x="988" y="423"/>
      <point x="801" y="29"/>
    </contour>
  </outline>
</glyph>
<glyph name="Thorn" format="1">
  <advance width="1005"/>
  <unicode hex="00DE"/>
  <outline>
    <contour>
      <point x="-26" y="36" type="line"/>
      <point x="-31" y="0" type="line"/>
      <point x="390" y="0" type="line"/>
      <point x="396" y="36" type="line"/>
      <point x="262" y="67" type="line"/>
      <point x="300" y="347" type="line"/>
      <point x="344" y="341"/>
      <point x="397" y="336"/>
      <point x="457" y="336" type="curve"/>
      <point x="757" y="336"/>
      <point x="971" y="521"/>
      <point x="975" y="800" type="curve"/>
      <point x="978" y="1044"/>
      <point x="851" y="1153"/>
      <point x="579" y="1153" type="curve"/>
      <point x="510" y="1153"/>
      <point x="473" y="1150"/>
      <point x="409" y="1141" type="curve"/>
      <point x="447" y="1419" type="line"/>
      <point x="570" y="1450" type="line"/>
      <point x="575" y="1486" type="line"/>
      <point x="174" y="1486" type="line"/>
      <point x="169" y="1450" type="line"/>
      <point x="289" y="1419" type="line"/>
      <point x="104" y="67" type="line"/>
    </contour>
    <contour>
      <point x="308" y="405" type="curve"/>
      <point x="401" y="1090" type="line"/>
      <point x="447" y="1097"/>
      <point x="499" y="1103"/>
      <point x="549" y="1103" type="curve"/>
      <point x="740" y="1103"/>
      <point x="810" y="993"/>
      <point x="808" y="830" type="curve"/>
      <point x="805" y="578"/>
      <point x="691" y="390"/>
      <point x="453" y="390" type="curve"/>
      <point x="415" y="390"/>
      <point x="353" y="397"/>
    </contour>
  </outline>
</glyph>
<glyph name="Thorn" format="1">
  <advance width="1002"/>
  <unicode hex="00DE"/>
  <outline>
    <contour>
      <point x="-26" y="36" type="line"/>
      <point x="-31" y="0" type="line"/>
      <point x="387" y="0" type="line"/>
      <point x="392" y="36" type="line"/>
      <point x="258" y="67" type="line"/>
      <point x="297" y="346" type="line"/>
      <point x="341" y="340"/>
      <point x="395" y="335"/>
      <point x="455" y="335" type="curve"/>
      <point x="751" y="335"/>
      <point x="968" y="518"/>
      <point x="973" y="800" type="curve"/>
      <point x="977" y="1044"/>
      <point x="850" y="1153"/>
      <point x="578" y="1153" type="curve"/>
      <point x="509" y="1153"/>
      <point x="472" y="1150"/>
      <point x="408" y="1141" type="curve"/>
      <point x="446" y="1420" type="line"/>
      <point x="569" y="1450" type="line"/>
      <point x="574" y="1486" type="line"/>
      <point x="177" y="1486" type="line"/>
      <point x="172" y="1450" type="line"/>
      <point x="292" y="1420" type="line"/>
      <point x="104" y="67" type="line"/>
    </contour>
    <contour>
      <point x="305" y="405" type="curve"/>
      <point x="400" y="1089" type="line"/>
      <point x="445" y="1097"/>
      <point x="498" y="1103"/>
      <point x="549" y="1103" type="curve"/>
      <point x="741" y="1103"/>
      <point x="812" y="994"/>
      <point x="810" y="830" type="curve"/>
      <point x="806" y="576"/>
      <point x="691" y="389"/>
      <point x="452" y="389" type="curve"/>
      <point x="413" y="389"/>
      <point x="350" y="396"/>
    </contour>
  </outline>
</glyph>
<glyph name="Lslash" format="1">
  <advance width="995"/>
  <unicode hex="0141"/>
  <outline>
    <contour>
      <point x="48" y="697" type="line"/>
      <point x="68" y="635" type="line"/>
      <point x="784" y="970" type="line"/>
      <point x="763" y="1035" type="line"/>
    </contour>
    <contour>
      <point x="17" y="36" type="line"/>
      <point x="12" y="0" type="line"/>
      <point x="865" y="0" type="line"/>
      <point x="959" y="436" type="line"/>
      <point x="894" y="450" type="line"/>
      <point x="771" y="93" type="line"/>
      <point x="304" y="66" type="line"/>
      <point x="489" y="1417" type="line"/>
      <point x="629" y="1450" type="line"/>
      <point x="634" y="1486" type="line"/>
      <point x="217" y="1486" type="line"/>
      <point x="212" y="1450" type="line"/>
      <point x="332" y="1419" type="line"/>
      <point x="147" y="67" type="line"/>
    </contour>
  </outline>
</glyph>
<glyph name="Lslash" format="1">
  <advance width="993"/>
  <unicode hex="0141"/>
  <outline>
    <contour>
      <point x="49" y="697" type="line"/>
      <point x="70" y="635" type="line"/>
      <point x="785" y="970" type="line"/>
      <point x="764" y="1035" type="line"/>
    </contour>
    <contour>
      <point x="18" y="36" type="line"/>
      <point x="12" y="0" type="line"/>
      <point x="862" y="0" type="line"/>
      <point x="957" y="434" type="line"/>
      <point x="894" y="448" type="line"/>
      <point x="772" y="93" type="line"/>
      <point x="301" y="66" type="line"/>
      <point x="488" y="1417" type="line"/>
      <point x="629" y="1450" type="line"/>
      <point x="634" y="1486" type="line"/>
      <point x="220" y="1486" type="line"/>
      <point x="215" y="1450" type="line"/>
      <point x="335" y="1420" type="line"/>
      <point x="148" y="67" type="line"/>
    </contour>
  </outline>
</glyph>
<glyph name="Eng" format="1">
  <advance width="1187"/>
  <unicode hex="014A"/>
  <outline>
    <contour>
      <point x="476" y="-406" type="curve"/>
      <point x="496" y="-451" type="line"/>
      <point x="684" y="-417"/>
      <point x="920" y="-267"/>
      <point x="962" y="41" type="curve"/>
      <point x="1152" y="1417" type="line"/>
      <point x="1282" y="1450" type="line"/>
      <point x="1286" y="1486" type="line"/>
      <point x="934" y="1486" type="line"/>
      <point x="930" y="1450" type="line"/>
      <point x="1065" y="1417" type="line"/>
      <point x="920" y="173" type="line"/>
      <point x="853" y="395" type="line"/>
      <point x="433" y="1486" type="line"/>
      <point x="174" y="1486" type="line"/>
      <point x="169" y="1450" type="line"/>
      <point x="291" y="1419" type="line"/>
      <point x="103" y="69" type="line"/>
      <point x="-25" y="36" type="line"/>
      <point x="-31" y="0" type="line"/>
      <point x="322" y="0" type="line"/>
      <point x="327" y="36" type="line"/>
      <point x="190" y="69" type="line"/>
      <point x="340" y="1353" type="line"/>
      <point x="413" y="1105" type="line"/>
      <point x="837" y="0" type="line"/>
      <point x="808" y="-193"/>
      <point x="666" y="-354"/>
    </contour>
  </outline>
</glyph>
<glyph name="Eng" format="1">
  <advance width="1183"/>
  <unicode hex="014A"/>
  <outline>
    <contour>
      <point x="476" y="-404" type="curve"/>
      <point x="496" y="-449" type="line"/>
      <point x="683" y="-416"/>
      <point x="918" y="-267"/>
      <point x="960" y="40" type="curve"/>
      <point x="1153" y="1417" type="line"/>
      <point x="1283" y="1450" type="line"/>
      <point x="1288" y="1486" type="line"/>
      <point x="936" y="1486" type="line"/>
      <point x="932" y="1450" type="line"/>
      <point x="1066" y="1417" type="line"/>
      <point x="918" y="168" type="line"/>
      <point x="852" y="391" type="line"/>
      <point x="432" y="1486" type="line"/>
      <point x="177" y="1486" type="line"/>
      <point x="172" y="1450" type="line"/>
      <point x="293" y="1419" type="line"/>
      <point x="104" y="69" type="line"/>
      <point x="-25" y="36" type="line"/>
      <point x="-31" y="0" type="line"/>
      <point x="321" y="0" type="line"/>
      <point x="326" y="36" type="line"/>
      <point x="190" y="69" type="line"/>
      <point x="342" y="1354" type="line"/>
      <point x="415" y="1106" type="line"/>
      <point x="837" y="0" type="line"/>
      <point x="808" y="-191"/>
      <point x="668" y="-351"/>
    </contour>
  </outline>
</glyph>
<glyph name="OE" format="1">
  <advance width="1840"/>
  <unicode hex="0152"/>
  <outline>
    <contour>
      <point x="529" y="-22" type="curve"/>
      <point x="702" y="-22"/>
      <point x="854" y="79"/>
      <point x="961" y="244" type="curve"/>
      <point x="928" y="0" type="line"/>
      <point x="1695" y="0" type="line"/>
      <point x="1777" y="325" type="line"/>
      <point x="1713" y="343" type="line"/>
      <point x="1604" y="93" type="line"/>
      <point x="1091" y="66" type="line"/>
      <point x="1183" y="733" type="line"/>
      <point x="1562" y="719" type="line"/>
      <point x="1576" y="810" type="line"/>
      <point x="1192" y="798" type="line"/>
      <point x="1278" y="1422" type="line"/>
      <point x="1691" y="1401" type="line"/>
      <point x="1728" y="1175" type="line"/>
      <point x="1780" y="1175" type="line"/>
      <point x="1793" y="1486" type="line"/>
      <point x="1134" y="1486" type="line"/>
      <point x="1094" y="1198" type="line"/>
      <point x="1036" y="1389"/>
      <point x="913" y="1503"/>
      <point x="722" y="1503" type="curve"/>
      <point x="362" y="1503"/>
      <point x="96" y="1117"/>
      <point x="94" y="605" type="curve"/>
      <point x="92" y="221"/>
      <point x="233" y="-22"/>
    </contour>
    <contour>
      <point x="551" y="29" type="curve"/>
      <point x="354" y="29"/>
      <point x="251" y="253"/>
      <point x="253" y="608" type="curve"/>
      <point x="256" y="1086"/>
      <point x="450" y="1452"/>
      <point x="702" y="1452" type="curve"/>
      <point x="904" y="1452"/>
      <point x="997" y="1244"/>
      <point x="996" y="879" type="curve"/>
      <point x="995" y="423"/>
      <point x="802" y="29"/>
    </contour>
  </outline>
</glyph>
<glyph name="OE" format="1">
  <advance width="1842"/>
  <unicode hex="0152"/>
  <outline>
    <contour>
      <point x="530" y="-22" type="curve"/>
      <point x="702" y="-22"/>
      <point x="854" y="78"/>
      <point x="961" y="242" type="curve"/>
      <point x="928" y="0" type="line"/>
      <point x="1697" y="0" type="line"/>
      <point x="1779" y="328" type="line"/>
      <point x="1714" y="345" type="line"/>
      <point x="1603" y="93" type="line"/>
      <point x="1094" y="66" type="line"/>
      <point x="1186" y="732" type="line"/>
      <point x="1564" y="718" type="line"/>
      <point x="1578" y="810" type="line"/>
      <point x="1195" y="797" type="line"/>
      <point x="1280" y="1422" type="line"/>
      <point x="1689" y="1401" type="line"/>
      <point x="1728" y="1174" type="line"/>
      <point x="1781" y="1174" type="line"/>
      <point x="1794" y="1486" type="line"/>
      <point x="1131" y="1486" type="line"/>
      <point x="1092" y="1200" type="line"/>
      <point x="1033" y="1390"/>
      <point x="911" y="1503"/>
      <point x="721" y="1503" type="curve"/>
      <point x="358" y="1503"/>
      <point x="94" y="1115"/>
      <point x="92" y="605" type="curve"/>
      <point x="91" y="223"/>
      <point x="232" y="-22"/>
    </contour>
    <contour>
      <point x="551" y="29" type="curve"/>
      <point x="355" y="29"/>
      <point x="253" y="256"/>
      <point x="255" y="607" type="curve"/>
      <point x="258" y="1084"/>
      <point x="449" y="1451"/>
      <point x="701" y="1452" type="curve"/>
      <point x="902" y="1452"/>
      <point x="993" y="1241"/>
      <point x="993" y="880" type="curve"/>
      <point x="993" y="424"/>
      <point x="802" y="29"/>
    </contour>
  </outline>
</glyph>
<glyph name="Ohorn" format="1">
  <advance width="1227"/>
  <unicode hex="01A0"/>
  <outline>
    <contour>
      <point x="945" y="1404" type="curve"/>
      <point x="980" y="1330" type="line"/>
      <point x="1236" y="1342"/>
      <point x="1326" y="1445"/>
      <point x="1329" y="1636" type="curve"/>
      <point x="1330" y="1687"/>
      <point x="1321" y="1713"/>
      <point x="1315" y="1730" type="curve"/>
      <point x="1187" y="1730" type="line"/>
      <point x="1187" y="1721"/>
      <point x="1188" y="1709"/>
      <point x="1188" y="1694" type="curve"/>
      <point x="1186" y="1519"/>
      <point x="1159" y="1404"/>
    </contour>
    <contour>
      <point x="528" y="-22" type="curve"/>
      <point x="896" y="-22"/>
      <point x="1148" y="379"/>
      <point x="1155" y="885" type="curve"/>
      <point x="1161" y="1257"/>
      <point x="1023" y="1503"/>
      <point x="719" y="1503" type="curve"/>
      <point x="356" y="1503"/>
      <point x="98" y="1115"/>
      <point x="91" y="605" type="curve"/>
      <point x="85" y="223"/>
      <point x="230" y="-22"/>
    </contour>
    <contour>
      <point x="550" y="29" type="curve"/>
      <point x="354" y="29"/>
      <point x="249" y="256"/>
      <point x="253" y="607" type="curve"/>
      <point x="260" y="1084"/>
      <point x="448" y="1451"/>
      <point x="699" y="1452" type="curve"/>
      <point x="900" y="1452"/>
      <point x="997" y="1238"/>
      <point x="992" y="880" type="curve"/>
      <point x="986" y="424"/>
      <point x="800" y="29"/>
    </contour>
    <contour>
      <point x="533" y="0" type="move" name="bottom"/>
    </contour>
    <contour>
      <point x="718" y="1486" type="move" name="top"/>
    </contour>
  </outline>
</glyph>
<glyph name="Ohorn" format="1">
  <advance width="1225"/>
  <unicode hex="01A0"/>
  <outline>
    <contour>
      <point x="720" y="1486" type="move" name="top"/>
    </contour>
    <contour>
      <point x="532" y="0" type="move" name="bottom"/>
    </contour>
    <contour>
      <point x="946" y="1405" type="curve"/>
      <point x="981" y="1331" type="line"/>
      <point x="1238" y="1343"/>
      <point x="1326" y="1446"/>
      <point x="1329" y="1636" type="curve"/>
      <point x="1330" y="1687"/>
      <point x="1322" y="1714"/>
      <point x="1315" y="1730" type="curve"/>
      <point x="1189" y="1730" type="line"/>
      <point x="1190" y="1722"/>
      <point x="1190" y="1710"/>
      <point x="1190" y="1694" type="curve"/>
      <point x="1187" y="1518"/>
      <point x="1160" y="1405"/>
    </contour>
    <contour>
      <point x="528" y="-22" type="curve"/>
      <point x="893" y="-22"/>
      <point x="1147" y="378"/>
      <point x="1155" y="885" type="curve"/>
      <point x="1160" y="1258"/>
      <point x="1022" y="1503"/>
      <point x="721" y="1503" type="curve"/>
      <point x="360" y="1503"/>
      <point x="100" y="1117"/>
      <point x="92" y="605" type="curve"/>
      <point x="86" y="221"/>
      <point x="231" y="-22"/>
    </contour>
    <contour>
      <point x="549" y="29" type="curve"/>
      <point x="352" y="29"/>
      <point x="246" y="253"/>
      <point x="251" y="608" type="curve"/>
      <point x="259" y="1086"/>
      <point x="448" y="1452"/>
      <point x="700" y="1452" type="curve"/>
      <point x="902" y="1452"/>
      <point x="1001" y="1241"/>
      <point x="995" y="879" type="curve"/>
      <point x="988" y="423"/>
      <point x="801" y="29"/>
    </contour>
  </outline>
</glyph>
<glyph name="Uhorn" format="1">
  <advance width="1276"/>
  <unicode hex="01AF"/>
  <outline>
    <contour>
      <point x="1063" y="612" type="curve"/>
      <point x="1166" y="1420" type="line"/>
      <point x="1286" y="1450" type="line"/>
      <point x="1291" y="1486" type="line"/>
      <point x="962" y="1486" type="line"/>
      <point x="957" y="1450" type="line"/>
      <point x="1088" y="1419" type="line"/>
      <point x="998" y="612" type="line" smooth="yes"/>
      <point x="955" y="224"/>
      <point x="796" y="59"/>
      <point x="581" y="59" type="curve"/>
      <point x="372" y="59"/>
      <point x="301" y="215"/>
      <point x="304" y="434" type="curve"/>
      <point x="305" y="484"/>
      <point x="309" y="538"/>
      <point x="317" y="594" type="curve"/>
      <point x="428" y="1419" type="line"/>
      <point x="561" y="1450" type="line"/>
      <point x="566" y="1486" type="line"/>
      <point x="159" y="1486" type="line"/>
      <point x="154" y="1450" type="line"/>
      <point x="269" y="1420" type="line"/>
      <point x="155" y="583" type="line" smooth="yes"/>
      <point x="149" y="537"/>
      <point x="147" y="494"/>
      <point x="146" y="452" type="curve"/>
      <point x="142" y="161"/>
      <point x="265" y="-20"/>
      <point x="552" y="-20" type="curve"/>
      <point x="842" y="-20"/>
      <point x="1008" y="178"/>
    </contour>
    <contour>
      <point x="1145" y="1507" type="curve"/>
      <point x="1160" y="1439" type="line"/>
      <point x="1350" y="1450"/>
      <point x="1423" y="1552"/>
      <point x="1424" y="1659" type="curve"/>
      <point x="1425" y="1682"/>
      <point x="1415" y="1694"/>
      <point x="1393" y="1709" type="curve"/>
      <point x="1286" y="1702" type="line"/>
      <point x="1301" y="1695"/>
      <point x="1320" y="1687"/>
      <point x="1320" y="1692" type="curve"/>
      <point x="1319" y="1604"/>
      <point x="1293" y="1505"/>
    </contour>
    <contour>
      <point x="565" y="0" type="move" name="bottom"/>
    </contour>
    <contour>
      <point x="750" y="1486" type="move" name="top"/>
    </contour>
  </outline>
</glyph>
<glyph name="Uhorn" format="1">
  <advance width="1275"/>
  <unicode hex="01AF"/>
  <outline>
    <contour>
      <point x="751" y="1486" type="move" name="top"/>
    </contour>
    <contour>
      <point x="562" y="0" type="move" name="bottom"/>
    </contour>
    <contour>
      <point x="1063" y="612" type="curve"/>
      <point x="1167" y="1420" type="line"/>
      <point x="1288" y="1450" type="line"/>
      <point x="1293" y="1486" type="line"/>
      <point x="963" y="1486" type="line"/>
      <point x="958" y="1450" type="line"/>
      <point x="1089" y="1420" type="line"/>
      <point x="999" y="612" type="line" smooth="yes"/>
      <point x="955" y="223"/>
      <point x="794" y="58"/>
      <point x="579" y="58" type="curve"/>
      <point x="369" y="58"/>
      <point x="298" y="215"/>
      <point x="301" y="435" type="curve"/>
      <point x="302" y="485"/>
      <point x="307" y="539"/>
      <point x="314" y="594" type="curve"/>
      <point x="427" y="1420" type="line"/>
      <point x="560" y="1450" type="line"/>
      <point x="565" y="1486" type="line"/>
      <point x="161" y="1486" type="line"/>
      <point x="156" y="1450" type="line"/>
      <point x="271" y="1420" type="line"/>
      <point x="157" y="582" type="line" smooth="yes"/>
      <point x="150" y="537"/>
      <point x="148" y="493"/>
      <point x="147" y="452" type="curve"/>
      <point x="143" y="161"/>
      <point x="266" y="-20"/>
      <point x="551" y="-20" type="curve"/>
      <point x="839" y="-20"/>
      <point x="1007" y="177"/>
    </contour>
    <contour>
      <point x="1140" y="1502" type="curve"/>
      <point x="1159" y="1433" type="line"/>
      <point x="1354" y="1444"/>
      <point x="1428" y="1549"/>
      <point x="1430" y="1658" type="curve"/>
      <point x="1430" y="1683"/>
      <point x="1421" y="1699"/>
      <point x="1403" y="1714" type="curve"/>
      <point x="1292" y="1709" type="line"/>
      <point x="1304" y="1701"/>
      <point x="1318" y="1692"/>
      <point x="1318" y="1693" type="curve"/>
      <point x="1317" y="1602"/>
      <point x="1290" y="1501"/>
    </contour>
  </outline>
</glyph>
<glyph name="Ezh" format="1">
  <advance width="1040"/>
  <outline>
    <contour>
      <point x="409" y="-16" type="curve"/>
      <point x="727" y="-16"/>
      <point x="962" y="150"/>
      <point x="966" y="455" type="curve"/>
      <point x="968" y="625"/>
      <point x="881" y="827"/>
      <point x="666" y="827" type="curve"/>
      <point x="663" y="802" type="line"/>
      <point x="1098" y="1450" type="line"/>
      <point x="1079" y="1486" type="line"/>
      <point x="250" y="1486" type="line"/>
      <point x="193" y="1138" type="line"/>
      <point x="252" y="1131" type="line"/>
      <point x="357" y="1406" type="line"/>
      <point x="920" y="1425" type="line"/>
      <point x="754" y="1202" type="line"/>
      <point x="491" y="806" type="line"/>
      <point x="516" y="772" type="line"/>
      <point x="534" y="785"/>
      <point x="571" y="785"/>
      <point x="596" y="785" type="curve"/>
      <point x="767" y="784"/>
      <point x="805" y="617"/>
      <point x="802" y="455" type="curve"/>
      <point x="799" y="196"/>
      <point x="664" y="37"/>
      <point x="411" y="36" type="curve"/>
      <point x="300" y="37"/>
      <point x="241" y="71"/>
      <point x="199" y="97" type="curve"/>
      <point x="195" y="395" type="line"/>
      <point x="112" y="395" type="line"/>
      <point x="56" y="56" type="line"/>
      <point x="101" y="54"/>
      <point x="237" y="-16"/>
    </contour>
    <contour>
      <point x="659" y="1486" type="move" name="top"/>
    </contour>
  </outline>
</glyph>
<glyph name="Ezh" format="1">
  <advance width="1040"/>
  <outline>
    <contour>
      <point x="662" y="1486" type="move" name="top"/>
    </contour>
    <contour>
      <point x="409" y="-16" type="curve"/>
      <point x="727" y="-16"/>
      <point x="961" y="150"/>
      <point x="966" y="456" type="curve"/>
      <point x="968" y="625"/>
      <point x="883" y="828"/>
      <point x="667" y="828" type="curve"/>
      <point x="664" y="803" type="line"/>
      <point x="1100" y="1450" type="line"/>
      <point x="1080" y="1486" type="line"/>
      <point x="253" y="1486" type="line"/>
      <point x="196" y="1140" type="line"/>
      <point x="253" y="1132" type="line"/>
      <point x="358" y="1406" type="line"/>
      <point x="926" y="1424" type="line"/>
      <point x="758" y="1200" type="line"/>
      <point x="495" y="806" type="line"/>
      <point x="519" y="773" type="line"/>
      <point x="538" y="786"/>
      <point x="575" y="786"/>
      <point x="600" y="786" type="curve"/>
      <point x="772" y="784"/>
      <point x="809" y="616"/>
      <point x="806" y="455" type="curve"/>
      <point x="802" y="196"/>
      <point x="666" y="37"/>
      <point x="411" y="36" type="curve"/>
      <point x="299" y="37"/>
      <point x="240" y="71"/>
      <point x="199" y="97" type="curve"/>
      <point x="196" y="394" type="line"/>
      <point x="115" y="394" type="line"/>
      <point x="57" y="55" type="line"/>
      <point x="103" y="54"/>
      <point x="239" y="-16"/>
    </contour>
  </outline>
</glyph>
<glyph name="Germandbls" format="1">
  <advance width="1214"/>
  <outline>
    <contour>
      <point x="737" y="-21" type="curve"/>
      <point x="982" y="-21"/>
      <point x="1168" y="180"/>
      <point x="1171" y="446" type="curve"/>
      <point x="1175" y="701"/>
      <point x="1011" y="840"/>
      <point x="806" y="890" type="curve"/>
      <point x="1118" y="1343" type="line"/>
      <point x="1127" y="1382" type="line"/>
      <point x="1060" y="1438"/>
      <point x="964" y="1494"/>
      <point x="767" y="1494" type="curve"/>
      <point x="447" y="1494"/>
      <point x="257" y="1224"/>
      <point x="210" y="888" type="curve"/>
      <point x="99" y="68" type="line"/>
      <point x="-31" y="36" type="line"/>
      <point x="-36" y="0" type="line"/>
      <point x="247" y="0" type="line"/>
      <point x="384" y="1013" type="line" smooth="yes"/>
      <point x="426" y="1315"/>
      <point x="522" y="1409"/>
      <point x="730" y="1407" type="curve"/>
      <point x="882" y="1405"/>
      <point x="970" y="1326"/>
      <point x="992" y="1298" type="curve"/>
      <point x="675" y="838" type="line"/>
      <point x="671" y="810" type="line"/>
      <point x="843" y="786"/>
      <point x="1007" y="625"/>
      <point x="1003" y="404" type="curve"/>
      <point x="1001" y="235"/>
      <point x="925" y="33"/>
      <point x="753" y="33" type="curve"/>
      <point x="667" y="33"/>
      <point x="591" y="79"/>
      <point x="570" y="125" type="curve"/>
      <point x="559" y="312" type="line"/>
      <point x="472" y="312" type="line"/>
      <point x="431" y="59" type="line"/>
      <point x="479" y="53"/>
      <point x="572" y="-21"/>
    </contour>
  </outline>
</glyph>
<glyph name="Gstroke" format="1">
  <advance width="1216"/>
  <outline>
    <contour>
      <point x="701" y="443" type="line"/>
      <point x="692" y="373" type="line"/>
      <point x="1201" y="373" type="line"/>
      <point x="1210" y="443" type="line"/>
    </contour>
    <contour>
      <point x="585" y="-17" type="curve"/>
      <point x="697" y="-17"/>
      <point x="799" y="26"/>
      <point x="872" y="53" type="curve"/>
      <point x="935" y="76"/>
      <point x="970" y="86"/>
      <point x="1005" y="89" type="curve"/>
      <point x="1092" y="709" type="line"/>
      <point x="726" y="709" type="line"/>
      <point x="719" y="649" type="line"/>
      <point x="934" y="631" type="line"/>
      <point x="869" y="150" type="line"/>
      <point x="805" y="90"/>
      <point x="692" y="37"/>
      <point x="596" y="37" type="curve"/>
      <point x="344" y="37"/>
      <point x="257" y="324"/>
      <point x="257" y="622" type="curve"/>
      <point x="256" y="1011"/>
      <point x="411" y="1449"/>
      <point x="757" y="1449" type="curve"/>
      <point x="909" y="1449"/>
      <point x="970" y="1405"/>
      <point x="1015" y="1371" type="curve"/>
      <point x="1018" y="1141" type="line"/>
      <point x="1090" y="1141" type="line"/>
      <point x="1142" y="1443" type="line"/>
      <point x="1132" y="1445"/>
      <point x="1120" y="1447"/>
      <point x="1107" y="1450" type="curve"/>
      <point x="1043" y="1467"/>
      <point x="939" y="1502"/>
      <point x="774" y="1502" type="curve"/>
      <point x="388" y="1502"/>
      <point x="90" y="1143"/>
      <point x="92" y="612" type="curve"/>
      <point x="92" y="306"/>
      <point x="196" y="-17"/>
    </contour>
  </outline>
</glyph>
<glyph name="Germandbls" format="1">
  <advance width="1211"/>
  <outline>
    <contour>
      <point x="736" y="-21" type="curve"/>
      <point x="979" y="-21"/>
      <point x="1165" y="180"/>
      <point x="1169" y="445" type="curve"/>
      <point x="1173" y="702"/>
      <point x="1009" y="841"/>
      <point x="805" y="891" type="curve"/>
      <point x="1116" y="1344" type="line"/>
      <point x="1126" y="1381" type="line"/>
      <point x="1059" y="1438"/>
      <point x="964" y="1493"/>
      <point x="766" y="1493" type="curve"/>
      <point x="450" y="1493"/>
      <point x="259" y="1224"/>
      <point x="213" y="889" type="curve"/>
      <point x="99" y="68" type="line"/>
      <point x="-31" y="36" type="line"/>
      <point x="-36" y="0" type="line"/>
      <point x="244" y="0" type="line"/>
      <point x="383" y="1015" type="line" smooth="yes"/>
      <point x="425" y="1318"/>
      <point x="521" y="1408"/>
      <point x="729" y="1406" type="curve"/>
      <point x="882" y="1404"/>
      <point x="970" y="1324"/>
      <point x="992" y="1297" type="curve"/>
      <point x="676" y="838" type="line"/>
      <point x="671" y="811" type="line"/>
      <point x="843" y="787"/>
      <point x="1008" y="624"/>
      <point x="1005" y="403" type="curve"/>
      <point x="1002" y="235"/>
      <point x="925" y="33"/>
      <point x="752" y="33" type="curve"/>
      <point x="665" y="33"/>
      <point x="588" y="79"/>
      <point x="567" y="124" type="curve"/>
      <point x="556" y="312" type="line"/>
      <point x="470" y="312" type="line"/>
      <point x="428" y="59" type="line"/>
      <point x="477" y="53"/>
      <point x="570" y="-21"/>
    </contour>
  </outline>
</glyph>
<glyph name="Schwa" format="1">
  <advance width="1146"/>
  <outline>
    <contour>
      <point x="509" y="-21" type="curve"/>
      <point x="862" y="-21"/>
      <point x="1126" y="351"/>
      <point x="1133" y="887" type="curve"/>
      <point x="1138" y="1253"/>
      <point x="998" y="1504"/>
      <point x="706" y="1504" type="curve"/>
      <point x="461" y="1504"/>
      <point x="359" y="1430"/>
      <point x="261" y="1424" type="curve"/>
      <point x="216" y="1137" type="line"/>
      <point x="300" y="1137" type="line"/>
      <point x="368" y="1346" type="line"/>
      <point x="416" y="1393"/>
      <point x="525" y="1452"/>
      <point x="678" y="1452" type="curve"/>
      <point x="875" y="1452"/>
      <point x="977" y="1240"/>
      <point x="972" y="890" type="curve"/>
      <point x="971" y="843"/>
      <point x="969" y="796"/>
      <point x="965" y="755" type="curve"/>
      <point x="146" y="754" type="line"/>
      <point x="126" y="698"/>
      <point x="109" y="584"/>
      <point x="107" y="470" type="curve"/>
      <point x="103" y="158"/>
      <point x="274" y="-21"/>
    </contour>
    <contour>
      <point x="517" y="29" type="curve"/>
      <point x="337" y="29"/>
      <point x="259" y="251"/>
      <point x="261" y="443" type="curve"/>
      <point x="262" y="521"/>
      <point x="277" y="618"/>
      <point x="292" y="688" type="curve"/>
      <point x="960" y="689" type="line"/>
      <point x="907" y="295"/>
      <point x="744" y="29"/>
    </contour>
  </outline>
</glyph>
<glyph name="Schwa" format="1">
  <advance width="1144"/>
  <outline>
    <contour>
      <point x="508" y="-21" type="curve"/>
      <point x="860" y="-21"/>
      <point x="1125" y="350"/>
      <point x="1133" y="886" type="curve"/>
      <point x="1139" y="1254"/>
      <point x="998" y="1504"/>
      <point x="708" y="1504" type="curve"/>
      <point x="463" y="1504"/>
      <point x="361" y="1430"/>
      <point x="263" y="1424" type="curve"/>
      <point x="217" y="1138" type="line"/>
      <point x="300" y="1138" type="line"/>
      <point x="368" y="1347" type="line"/>
      <point x="416" y="1394"/>
      <point x="525" y="1452"/>
      <point x="680" y="1452" type="curve"/>
      <point x="877" y="1452"/>
      <point x="981" y="1242"/>
      <point x="975" y="890" type="curve"/>
      <point x="974" y="843"/>
      <point x="972" y="797"/>
      <point x="968" y="754" type="curve"/>
      <point x="148" y="753" type="line"/>
      <point x="127" y="698"/>
      <point x="110" y="584"/>
      <point x="109" y="470" type="curve"/>
      <point x="104" y="158"/>
      <point x="273" y="-21"/>
    </contour>
    <contour>
      <point x="517" y="29" type="curve"/>
      <point x="336" y="29"/>
      <point x="256" y="252"/>
      <point x="259" y="443" type="curve"/>
      <point x="261" y="522"/>
      <point x="275" y="618"/>
      <point x="290" y="687" type="curve"/>
      <point x="964" y="688" type="line"/>
      <point x="909" y="295"/>
      <point x="746" y="29"/>
    </contour>
  </outline>
</glyph>
